<svg width="163" height="80" viewBox="0 0 163 80" fill="none" xmlns="http://www.w3.org/2000/svg">
<path d="M73.2574 41.4618C73.2574 46.4588 69.4377 50.141 64.75 50.141C60.0624 50.141 56.2427 46.4588 56.2427 41.4618C56.2427 36.4297 60.0624 32.7827 64.75 32.7827C69.4377 32.7827 73.2574 36.4297 73.2574 41.4618ZM69.5333 41.4618C69.5333 38.3392 67.3194 36.2027 64.75 36.2027C62.1806 36.2027 59.9668 38.3392 59.9668 41.4618C59.9668 44.5531 62.1806 46.721 64.75 46.721C67.3194 46.721 69.5333 44.5492 69.5333 41.4618Z" fill="#2D3D4D"/>
<path d="M91.6104 41.4618C91.6104 46.4588 87.7907 50.141 83.1031 50.141C78.4154 50.141 74.5957 46.4588 74.5957 41.4618C74.5957 36.4336 78.4154 32.7827 83.1031 32.7827C87.7907 32.7827 91.6104 36.4297 91.6104 41.4618ZM87.8863 41.4618C87.8863 38.3392 85.6725 36.2027 83.1031 36.2027C80.5336 36.2027 78.3198 38.3392 78.3198 41.4618C78.3198 44.5531 80.5336 46.721 83.1031 46.721C85.6725 46.721 87.8863 44.5492 87.8863 41.4618Z" fill="#2D3D4D"/>
<path d="M109.198 33.3071V48.8888C109.198 55.2984 105.505 57.9162 101.138 57.9162C97.028 57.9162 94.5542 55.1027 93.6213 52.8018L96.8636 51.4205C97.441 52.8332 98.8557 54.5001 101.135 54.5001C103.93 54.5001 105.662 52.7353 105.662 49.4132V48.1649H105.532C104.698 49.2175 103.092 50.1371 101.066 50.1371C96.8254 50.1371 92.9407 46.3571 92.9407 41.4931C92.9407 36.594 96.8254 32.7827 101.066 32.7827C103.088 32.7827 104.694 33.7023 105.532 34.7236H105.662V33.311H109.198V33.3071ZM105.925 41.4931C105.925 38.4371 103.933 36.2027 101.398 36.2027C98.8289 36.2027 96.6763 38.4371 96.6763 41.4931C96.6763 44.5179 98.8289 46.721 101.398 46.721C103.933 46.721 105.925 44.5179 105.925 41.4931Z" fill="#2D3D4D"/>
<path d="M115.029 24.1738V49.6086H111.397V24.1738H115.029Z" fill="#2D3D4D"/>
<path d="M129.184 44.3184L132.075 46.2905C131.142 47.7032 128.894 50.1371 125.009 50.1371C120.191 50.1371 116.593 46.3258 116.593 41.4579C116.593 36.2966 120.222 32.7788 124.592 32.7788C128.993 32.7788 131.146 36.3632 131.849 38.3001L132.235 39.2862L120.899 44.0914C121.767 45.8327 123.116 46.721 125.009 46.721C126.905 46.721 128.221 45.7662 129.184 44.3184ZM120.287 41.1958L127.865 37.9753C127.448 36.8914 126.194 36.1362 124.718 36.1362C122.826 36.1362 120.191 37.8462 120.287 41.1958Z" fill="#2D3D4D"/>
<path d="M42.4935 39.2041V35.5219H54.6179C54.7365 36.1636 54.7976 36.9228 54.7976 37.7445C54.7976 40.5071 54.0597 43.9232 51.6815 46.3571C49.3682 48.8223 46.4126 50.1371 42.4974 50.1371C35.2403 50.1371 29.1379 44.0876 29.1379 36.6606C29.1379 29.2336 35.2403 23.1841 42.4974 23.1841C46.5121 23.1841 49.3721 24.7963 51.5209 26.8976L48.9821 29.4958C47.4412 28.0167 45.3535 26.8663 42.4935 26.8663C37.1941 26.8663 33.0494 31.2371 33.0494 36.6606C33.0494 42.0841 37.1941 46.455 42.4935 46.455C45.9309 46.455 47.8885 45.0423 49.1426 43.7589C50.1597 42.718 50.8288 41.231 51.0926 39.2002L42.4935 39.2041Z" fill="#2D3D4D"/>
</svg>
