<svg width="163" height="80" viewBox="0 0 163 80" fill="none" xmlns="http://www.w3.org/2000/svg">
<g clip-path="url(#clip0)">
<path d="M39.318 30.0039C33.0731 30.0039 28 34.9333 28 41.0012C28 47.069 33.0731 51.9984 39.318 51.9984C45.5628 51.9984 50.6359 47.069 50.6359 41.0012C50.6359 34.9333 45.5628 30.0039 39.318 30.0039ZM39.318 50.8963C33.6964 50.8963 29.1343 46.4513 29.1343 41.0012C29.1343 35.551 33.6964 31.1061 39.318 31.1061C44.9396 31.1061 49.5016 35.551 49.5016 41.0012C49.5016 46.4513 44.9396 50.8963 39.318 50.8963Z" fill="#2D3D4D"/>
<path d="M43.3572 33.9511C43.3198 33.9269 43.27 33.9148 43.2201 33.9148C43.0705 33.9148 42.9583 34.0238 42.9583 34.1691V37.6088C42.9583 37.7299 42.8586 37.8268 42.734 37.8268H35.8784C35.7537 37.8268 35.6665 37.7299 35.654 37.6088V34.1691C35.654 34.1207 35.6416 34.0843 35.6166 34.0359C35.5418 33.9148 35.3798 33.8784 35.2551 33.9511C32.7248 35.465 31.1917 38.0932 31.1917 41C31.1917 43.9068 32.7248 46.535 35.2801 48.0489C35.3175 48.0731 35.3673 48.0852 35.4172 48.0852C35.5668 48.0852 35.6789 47.9762 35.6789 47.8309V44.3912C35.6789 44.2701 35.7787 44.1853 35.9033 44.1732H42.7589C42.8835 44.1732 42.9833 44.2701 42.9833 44.3912V47.8309C42.9833 47.8793 42.9957 47.9157 43.0207 47.9641C43.0954 48.0852 43.2575 48.1216 43.3821 48.0489C45.9374 46.535 47.4706 43.9068 47.4706 41C47.4706 38.0932 45.9125 35.465 43.3572 33.9511ZM34.3577 45.3117L34.3951 45.7235L34.1209 45.3965C32.0143 42.8167 32.0143 39.1712 34.1209 36.5914L34.3577 36.3007L34.3951 36.2644L34.3577 36.6883C34.3203 37.0274 34.3078 37.3787 34.3078 37.7299V44.258C34.3078 44.6092 34.3328 44.9605 34.3577 45.3117ZM42.9583 42.6472C42.9583 42.7683 42.8586 42.8652 42.734 42.8652H35.8784C35.7537 42.8652 35.6665 42.7683 35.654 42.6472V39.3528C35.654 39.2317 35.7537 39.1348 35.8784 39.1348H42.734C42.8586 39.1348 42.9583 39.2317 42.9583 39.3528V42.6472ZM44.504 45.3965L44.2297 45.7235L44.2671 45.3117C44.3045 44.9726 44.317 44.6213 44.317 44.2701V37.7299C44.317 37.3787 44.3045 37.0274 44.2671 36.6883L44.2547 36.5066L44.2422 36.3128V36.2644L44.504 36.5914C45.5261 37.8268 46.087 39.4013 46.087 40.9879C46.087 42.5745 45.5261 44.1611 44.504 45.3965Z" fill="#2D3D4D"/>
<path d="M67.7126 40.8062C67.6503 40.782 67.5755 40.7578 67.5755 40.6851C67.5755 40.6367 67.6004 40.6003 67.6503 40.5761C67.7375 40.5398 69.8939 39.7889 69.8939 37.3181C69.8939 34.5688 67.9868 32.9338 64.7709 32.9338H56.9805V49.0905H65.4814C67.9619 49.0905 70.6293 47.3828 70.6293 44.6335C70.6293 42.0053 68.5851 41.0848 67.7126 40.8062ZM60.9069 36.2402C60.9069 36.1796 60.9567 36.1312 61.019 36.1312H64.1103C65.1324 36.1312 65.8304 36.7973 65.8304 37.7905C65.8304 38.5656 65.2072 39.4013 64.0355 39.4013H61.019C60.9567 39.4013 60.9069 39.3529 60.9069 39.2923V36.2402ZM64.1103 45.9052H61.019C60.9567 45.9052 60.9069 45.8567 60.9069 45.7962V42.5745C60.9069 42.514 60.9567 42.4655 61.019 42.4655H64.0355C65.5188 42.4655 66.3664 43.0832 66.3664 44.1732C66.3664 45.2996 65.5811 45.9052 64.1103 45.9052ZM96.9424 39.365L96.3441 39.2439C94.9979 38.9653 93.6891 38.6141 93.6891 37.4877C93.6891 36.3613 94.7735 35.8526 95.8455 35.8526C97.1044 35.8526 98.3509 36.3977 99.2982 37.3424L101.766 34.9685C100.707 33.83 98.8245 32.522 95.7831 32.522C92.1185 32.522 89.6505 34.5446 89.6505 37.5604C89.6505 40.7457 92.2307 41.9447 94.3996 42.3928L94.9854 42.514C97.0919 42.95 98.0891 43.277 98.0891 44.4397C98.0891 45.4813 97.1293 46.1716 95.7084 46.1716C94.0381 46.1716 92.5548 45.4571 91.433 44.1127L88.9026 46.5229C90.2488 48.0731 92.0313 49.4781 95.7582 49.4781C98.9367 49.4781 102.165 47.6856 102.165 44.2459C102.153 40.7215 99.6846 39.9221 96.9424 39.365ZM129.787 32.9338V38.8442C129.787 38.9047 129.737 38.9532 129.675 38.9532H124.564C124.502 38.9532 124.452 38.9047 124.452 38.8442V32.9338H120.264V49.0905H124.452V42.7441C124.452 42.6835 124.502 42.6351 124.564 42.6351H129.675C129.737 42.6351 129.787 42.6835 129.787 42.7441V49.0905H134V32.9338H129.787ZM111.838 45.7841C109.956 45.7841 107.924 44.258 107.924 40.9031C107.924 37.8389 109.831 36.2402 111.713 36.2402C113.084 36.2402 114.044 36.7973 114.804 38.0327L118.02 35.9616C116.375 33.612 114.418 32.5462 111.688 32.5462C106.341 32.5462 103.948 36.7489 103.948 40.9031C103.948 45.9536 107.114 49.4781 111.638 49.4781C115.004 49.4781 116.537 48.279 118.145 46.0626L114.904 43.9431C114.181 45.0816 113.396 45.7841 111.838 45.7841ZM80.0402 32.522C75.4657 32.522 72.3993 35.9253 72.3993 41C72.3993 46.0747 75.4657 49.4781 80.0402 49.4781C84.6148 49.4781 87.6811 46.0747 87.6811 41C87.6811 35.9253 84.6148 32.522 80.0402 32.522ZM80.0402 45.7841C77.7966 45.7841 76.3506 43.9068 76.3506 41C76.3506 38.1054 77.7966 36.2402 80.0402 36.2402C82.2963 36.2402 83.7547 38.1054 83.7547 41C83.7547 43.9068 82.2963 45.7841 80.0402 45.7841Z" fill="#2D3D4D"/>
</g>
<defs>
<clipPath id="clip0">
<rect width="106" height="22" fill="white" transform="translate(28 30)"/>
</clipPath>
</defs>
</svg>
