<svg width="163" height="80" viewBox="0 0 163 80" fill="none" xmlns="http://www.w3.org/2000/svg">
<g clip-path="url(#clip0)">
<path fill-rule="evenodd" clip-rule="evenodd" d="M56.0281 22.7468C56.201 21.3657 56.0281 19.3612 57.0904 18.4201C57.4116 16.9534 59.7463 17.2957 59.3757 16.3545C59.1533 15.7801 58.0539 16.0001 57.6092 16.159C56.0464 16.6475 54.4589 17.0555 52.8533 17.3812L51.2969 16.9412C49.2833 17.2101 48.1222 18.7868 47.0104 20.0457C46.0716 21.0968 44.8116 23.7123 45.7751 25.2157C45.7751 25.5579 45.6639 25.8879 45.6145 26.2301L47.8875 29.5301C48.6781 30.0801 48.7769 30.4957 49.6292 31.0457L50.1481 31.8279C51.1251 32.2447 52.2208 32.301 53.2363 31.9868C56.5098 32.2923 56.1639 25.7045 57.2016 24.3234C57.0213 23.6722 56.6031 23.1104 56.0281 22.7468ZM41.8716 42.5101C42.7088 42.3818 43.5348 42.1897 44.3422 41.9357C45.3304 41.4468 48.7398 39.0757 47.6528 37.1568C47.3192 33.1112 42.3904 36.5334 40.241 35.1157C38.1904 34.8468 35.8063 30.8623 35.1763 29.1634C35.0856 28.8058 34.9169 28.4721 34.6822 28.1857C34.6822 28.1245 34.4722 28.369 34.4722 28.3079C33.8545 29.029 33.9533 29.6523 33.8669 31.4001H33.0269C33.0449 31.8673 32.8962 32.3259 32.6069 32.6957L32.4216 33.0134C31.8904 32.8423 32.1622 33.0868 31.9398 32.659C29.9757 32.7079 30.1116 34.6512 29.2222 35.7634C29.2592 39.3934 36.5351 43.879 41.8716 42.5101ZM66.0216 31.5101C63.7641 31.7742 61.6014 32.5614 59.7092 33.8079C59.2249 34.1365 58.8061 34.5509 58.4739 35.0301C58.2448 35.4438 58.1704 35.9242 58.2639 36.3868C58.2907 36.677 58.3767 36.9588 58.5169 37.2151C58.657 37.4715 58.8483 37.6969 59.0792 37.8779C62.9828 37.5968 69.7398 37.3523 71.0616 40.5912C71.1092 40.8712 71.171 41.1485 71.2469 41.4223C72.4822 41.1045 71.5928 41.2145 73.4828 41.5079C74.2362 41.4943 74.9843 41.3792 75.7063 41.1657C75.9136 41.1064 76.093 40.9765 76.2128 40.799C76.1925 40.6407 76.1925 40.4806 76.2128 40.3223C76.5344 40.3535 76.8587 40.2987 77.1516 40.1634C78.9551 39.8823 78.0039 39.039 78.8563 38.0979C78.2757 31.9745 72.0004 30.569 66.0586 31.4734L66.0216 31.5101ZM59.0669 44.6368C58.1651 45.3212 57.8316 45.1501 57.251 46.2134C57.251 46.2134 57.3375 46.3723 57.251 46.3723C57.7945 47.4357 59.0298 47.8634 59.9439 48.609C60.2281 48.8534 60.9939 50.1612 61.3522 50.259C61.7598 50.7357 62.0316 52.0801 62.291 52.0801C62.5751 52.4468 62.291 53.3023 62.5504 53.6812C62.5504 55.2579 62.3404 55.3801 62.0686 55.6734C62.0686 55.7834 62.2169 56.0768 62.2169 56.1868C62.2169 56.2968 62.9333 56.7123 63.2175 56.6512C64.0822 56.6512 67.6522 59.4379 67.9363 59.9757C70.4933 60.159 70.3081 59.389 72.0745 58.6434C72.5563 58.4479 72.9392 58.6434 73.3098 58.3134C73.6804 57.9834 73.6681 57.3234 73.9769 56.9934C73.9892 50.7601 65.4163 44.8568 59.0669 44.6368ZM48.9869 46.0668C48.6286 46.4334 47.6404 46.5801 47.3686 47.0079C46.7548 48.0219 46.0388 48.972 45.2316 49.8434C42.761 52.1168 37.6222 53.2657 35.0651 51.0657C34.8922 51.0657 34.991 51.1757 35.1886 51.799C35.3739 53.0212 36.3375 55.7468 35.9792 56.4557C36.2139 57.2379 36.4486 56.9568 36.8933 57.3845C37.3381 57.8123 37.3133 58.4479 37.6469 58.6068L38.8822 58.5334C38.9563 58.7412 39.0304 58.9612 39.0922 59.1812L40.5992 59.0712C40.8833 59.1323 41.7357 59.5723 41.9828 59.6334L43.6504 59.5234C44.2587 59.6339 44.8841 59.6102 45.482 59.4538C46.0799 59.2975 46.6356 59.0124 47.1092 58.619C47.7145 58.2156 48.3445 58.2768 48.9004 57.8245C49.7762 57.0303 50.5332 56.1167 51.1486 55.1112C52.3839 52.9357 51.9516 47.7779 50.8522 46.4579C50.4322 45.969 49.9257 45.9568 48.9869 46.0668Z" fill="#2D3D4D"/>
<path d="M110.455 31.8889C115.73 31.8889 119.288 35.1889 119.288 41.08C119.288 48.4989 114.346 50.6867 109.257 50.6867H102.389V34.7856V31.9011L110.455 31.8889ZM108.911 47.13C111.826 47.13 114.186 46.1767 114.186 41.0922C114.186 36.7656 111.826 35.3234 108.911 35.3234H107.379V47.13H108.911ZM126.761 47.7778C126.761 49.1467 126.835 50.65 126.835 50.65H121.733V34.7856V31.9011H133.778V35.5678C133.778 35.5678 131.085 35.5067 130.171 35.5067H126.761V39.2222H133.012V42.6811H126.761V47.7778ZM92.2223 46.8978C91.6657 46.9322 91.1081 46.8511 90.585 46.6597C90.062 46.4684 89.5851 46.171 89.185 45.7866C88.785 45.4023 88.4705 44.9394 88.2617 44.4278C88.053 43.9162 87.9546 43.367 87.9729 42.8156V42.6078C87.9729 42.6078 92.4323 42.4978 93.9394 42.4978C96.5088 42.4978 97.5711 42.4978 99.5847 42.4367V41.0189C99.5847 34.6145 96.8423 31.4978 91.1847 31.4978C88.5782 31.4978 82.5376 32.4634 82.5376 41.4467C82.5376 47.4234 85.6011 51.0045 90.9376 51.0045C94.0145 51.1642 97.0574 50.304 99.5847 48.56C99.387 48.2545 97.8182 45.48 97.6205 45.1745C96.0586 46.3148 94.1633 46.9199 92.2223 46.8978ZM87.9729 39.0022C88.047 37.9145 88.4423 35.3356 91.2217 35.3356C94.0011 35.3356 94.2235 37.7189 94.2235 39.0022V39.2222H87.9605L87.9729 39.0022Z" fill="#2D3D4D"/>
</g>
<defs>
<clipPath id="clip0">
<rect width="105" height="44" fill="white" transform="translate(29 16)"/>
</clipPath>
</defs>
</svg>
