<svg width="163" height="80" viewBox="0 0 163 80" fill="none" xmlns="http://www.w3.org/2000/svg">
<path d="M118.2 33.4859C117.663 33.3184 116.213 32.8863 115.486 32.6702C114.282 32.3109 113.843 32.2041 113.583 32.2041C113.092 32.2041 112.827 32.4711 112.658 33.0222C110.967 38.5257 108.393 44.7089 106.097 48.5592C105.344 47.156 103.955 44.7138 102.662 42.5143C100.665 39.1156 98.6947 35.6732 97.7035 34.0952C97.4845 33.7336 97.2385 33.3887 96.9674 33.0635C96.3099 32.3061 95.6891 32.0754 94.7224 32.0754C92.0089 32.0754 87.9875 34.4545 87.9875 36.6758C87.9875 37.4284 88.2035 37.9941 89.0033 39.3268L95.4683 49.2219C95.5542 49.0787 95.6352 48.9355 95.7137 48.7922C95.6319 48.9363 95.5501 49.0795 95.4683 49.2219C96.754 51.1641 97.701 52.6207 98.6137 53.9267C99.9533 55.8689 101.175 56.5777 103.908 56.5777C106.497 56.5777 108.052 55.9708 109.451 53.8782C113.131 48.3893 116.252 41.8977 118.509 35.9136C118.791 35.1683 119 34.622 119 34.2797C119 33.9374 118.757 33.651 118.2 33.4859Z" fill="#2D3D4D"/>
<path d="M48.0275 29.1767C44.9189 29.1767 43.0002 27.0185 43.0002 24.2995C43.0002 21.5805 44.9189 19.4224 48.0275 19.4224C51.1361 19.4224 53.0572 21.5805 53.0572 24.2995C53.0572 27.0185 51.1385 29.1767 48.0275 29.1767ZM68.6198 52.7734C66.0289 55.1137 61.6444 56.5703 57.4391 56.5703C53.2338 56.5703 48.7979 55.4366 46.2045 52.9021C44.2098 50.96 43.0665 48.4765 43.0665 44.1431V33.2867C43.0665 32.7502 43.2603 32.5244 43.8467 32.5244H52.1886C52.7824 32.5244 52.9836 32.7672 52.9836 33.2818V45.3036C52.9836 47.2238 53.4056 48.5226 54.3134 49.4597C55.1819 50.3555 56.6393 50.892 58.2831 50.892C59.9687 50.892 61.4997 50.3361 62.4737 49.314C63.5827 48.1488 64.0832 46.4858 64.0832 43.4197V42.4729C64.0832 46.4446 65.5234 50.154 68.6099 52.7831L68.6198 52.7734Z" fill="#2D3D4D"/>
<path d="M89.002 39.3192C89.9122 40.8365 90.3686 42.0673 90.3686 43.5821C90.3686 47.3571 87.4857 50.7753 81.9162 50.7753C79.2738 50.7753 77.235 50.047 75.9052 48.7069C74.6392 47.4348 74.0233 45.7233 74.0233 42.866V38.0714C75.1177 38.4902 76.2854 38.6891 77.4582 38.6564H81.8745C82.4683 38.6564 82.6768 38.4137 82.6768 37.899V33.2865C82.6768 32.7621 82.4683 32.529 81.8745 32.529H74.0233V24.9718C74.0233 24.0662 73.778 23.4472 73.2627 22.9835C72.4997 22.3013 70.9196 21.9688 69.0599 21.9688C67.2001 21.9688 65.625 22.3013 64.857 22.9835C64.3369 23.4472 64.0964 24.0711 64.0964 24.9718V42.4508C64.0964 46.4225 65.5366 50.1368 68.6232 52.7659C71.1674 55.0309 75.7874 56.5604 80.8907 56.5604C87.6305 56.5604 92.5841 53.8365 95.4743 49.207L89.002 39.3192Z" fill="#2D3D4D"/>
</svg>
