<svg width="163" height="80" viewBox="0 0 163 80" fill="none" xmlns="http://www.w3.org/2000/svg">
<path d="M41.3831 24.7363C41.3831 24.7363 44.4667 22.3775 47.5161 22.3036C47.5161 22.3036 53.6491 21.522 53.0665 27.8539C53.0665 27.8539 51.3584 22.3832 43.7931 26.9388L25.8546 40.6599L25.8489 40.6371C25.8489 40.6371 22.7682 42.9988 19.7188 43.0698C19.7188 43.0698 13.5859 43.8514 14.1656 37.5195C14.1656 37.5195 15.868 42.9761 23.4418 38.4062L23.4503 38.3664L41.3831 24.7363Z" fill="#2D3D4D"/>
<path d="M41.7217 31.2671C41.7217 31.2671 44.8053 28.9082 47.8547 28.8343C47.8547 28.8343 53.9877 28.0528 53.4051 34.3847C53.4051 34.3847 51.6942 28.9139 44.1317 33.4696L26.1932 47.1906L26.1875 47.1679C26.1875 47.1679 23.1068 49.5267 20.0574 49.6034C20.0574 49.6034 13.9244 50.3821 14.507 44.0502C14.507 44.0502 16.2065 49.5068 23.7804 44.9369L23.7889 44.8971L41.7217 31.2671Z" fill="#2D3D4D"/>
<path d="M46.5183 49.6547H50.2839L51.3497 44.2265C51.6623 42.4844 51.7248 42.0723 51.8982 40.3472C52.1483 42.2485 52.2279 42.7373 52.5859 44.6386L53.592 49.6547H57.3406L60.0973 35.8171H56.6954L55.5984 41.9529C55.3483 43.5018 55.2858 43.9338 55.1267 45.4628C54.9874 43.9736 54.9391 43.5587 54.6123 41.8364L53.4044 35.8171H50.4374L49.2949 41.8364C48.9795 43.5217 48.934 43.9338 48.7464 45.4827C48.6214 43.9537 48.556 43.5416 48.2605 41.8563L47.1777 35.8171H43.7588L46.5183 49.6547Z" fill="#2D3D4D"/>
<path d="M73.8267 49.6546H77.3393V44.7749H78.3738L80.5252 49.6546H84.413L81.716 44.0701C82.2332 43.8143 82.705 43.5983 83.1426 43.0129C83.9441 41.9926 83.9895 40.7564 83.9895 40.2277C83.9895 38.8949 83.549 37.0135 82.0769 36.2291C81.4005 35.8767 80.4001 35.7971 79.3486 35.7971H73.8267V49.6546ZM78.7831 38.6988C79.3941 38.6988 80.4939 38.7386 80.4939 40.3272C80.4939 41.8931 79.3799 41.9329 78.8001 41.9329H77.3393V38.6988H78.7831Z" fill="#2D3D4D"/>
<path d="M97.4749 49.6547H106.711V46.6564H100.988V43.9139H105.898V40.9156H100.988V38.8552H106.242V35.8171H97.4749V49.6547Z" fill="#2D3D4D"/>
<path d="M118.46 39.2302H121.265V49.6546H124.761V39.2302H127.568V35.7971H118.46V39.2302Z" fill="#2D3D4D"/>
<path d="M128.361 49.6547H137.598V46.6564H131.874V43.9139H136.782V40.9156H131.874V38.8552H137.126V35.8171H128.361V49.6547Z" fill="#2D3D4D"/>
<path d="M139.417 49.6546H142.929V44.7749H143.964L146.112 49.6546H150L147.303 44.0701C147.82 43.8143 148.292 43.5983 148.73 43.0129C149.531 41.9926 149.577 40.7564 149.577 40.2277C149.577 38.8949 149.139 37.0135 147.664 36.2291C146.99 35.8767 145.987 35.7971 144.936 35.7971H139.417V49.6546ZM144.37 38.6988C144.984 38.6988 146.081 38.7386 146.081 40.3272C146.081 41.8931 144.967 41.9329 144.387 41.9329H142.929V38.6988H144.37Z" fill="#2D3D4D"/>
<path d="M93.7546 40.3445C93.1833 39.3526 92.254 38.7075 91.2082 38.7075C89.4717 38.7075 88.0649 40.4752 88.0649 42.6578C88.0649 44.8376 89.4717 46.6053 91.2082 46.6053C92.2256 46.6053 93.1066 45.9829 93.6807 45.0365L96.3948 46.7872C95.2551 48.6686 93.3567 49.8963 91.2082 49.8963C87.7211 49.8963 84.8933 46.6565 84.8933 42.6578C84.8933 38.6592 87.7211 35.4165 91.2082 35.4165C91.2082 35.4165 94.2008 35.0129 96.1816 38.6336L93.7546 40.3445Z" fill="#2D3D4D"/>
<path d="M107.41 47.3696C107.93 48.1341 108.564 48.9156 110.175 49.6176C111.045 49.9956 111.98 50.0297 112.841 50.0297C113.478 50.0297 115.788 50.0297 117.235 48.2449C117.755 47.5998 118.36 46.5767 118.258 45.1273C118.028 41.8192 115.064 41.5237 112.509 40.9951C111.517 40.7791 111.235 40.3414 111.235 39.6736C111.235 38.9688 112.043 38.3663 112.662 38.3663C113.248 38.3663 114.146 38.4316 114.813 38.821C115.317 39.1364 115.459 39.3297 115.638 39.6054L117.655 37.5165C117.249 37.005 117.218 36.8486 116.354 36.3371C115.41 35.7687 114.339 35.3225 113.02 35.3225C110.957 35.3225 108.936 36.1751 108.186 38.2156C107.976 38.7641 107.862 39.3922 107.862 40.0004C107.862 42.9191 110.013 43.658 111.071 43.9905C111.54 44.1269 113.668 44.5106 114.075 44.6868C114.708 44.9426 114.7 45.8776 114.686 45.9742C114.535 46.9149 113.267 47.0087 112.975 47.0087C112.421 47.0087 111.835 46.8893 111.363 46.6961C110.369 46.301 109.925 45.7639 109.502 45.2495L107.41 47.3696Z" fill="#2D3D4D"/>
<path d="M66.3666 38.7643C66.7474 38.7643 68.3787 38.824 69.0239 40.7423C69.2143 41.2936 69.2711 41.899 69.2711 42.564C69.2711 45.1701 68.0775 46.5598 66.3666 46.5598C64.3573 46.5598 63.4081 45.1104 63.4081 42.7032C63.4081 39.8414 64.849 38.7643 66.3666 38.7643ZM66.378 35.3113C62.2316 35.3113 60.2024 38.7643 60.2024 42.6862C60.2024 45.8095 61.6148 49.9645 66.3126 49.9645C70.8143 49.9645 72.5223 46.0028 72.5223 42.5299C72.5223 39.2701 70.9138 35.3113 66.378 35.3113Z" fill="#2D3D4D"/>
</svg>
